<svg width="32" height="32" viewBox="0 0 32 32" fill="none" xmlns="http://www.w3.org/2000/svg">
  <!-- Background -->
  <rect width="32" height="32" rx="6" fill="#6C63FF"/>
  
  <!-- House shape -->
  <path d="M8 18 L16 10 L24 18 L24 26 C24 26.6 23.6 27 23 27 L9 27 C8.4 27 8 26.6 8 26 L8 18 Z" fill="white"/>
  
  <!-- Heart -->
  <path d="M16 22 C15 21 12.5 19.5 12.5 17.5 C12.5 16.7 13.2 16 14 16 C14.4 16 14.8 16.2 15 16.4 C15.2 16.2 15.6 16 16 16 C16.8 16 17.5 16.7 17.5 17.5 C17.5 19.5 15 21 16 22 Z" fill="#6C63FF"/>
  
  <!-- Small decorative elements -->
  <circle cx="12" cy="14" r="1" fill="white" opacity="0.6"/>
  <circle cx="20" cy="14" r="1" fill="white" opacity="0.6"/>
</svg>