<svg width="1024" height="1024" viewBox="0 0 1024 1024" fill="none" xmlns="http://www.w3.org/2000/svg">
  <!-- Main Icon - Family/Children Symbol (Foreground) -->
  <g transform="translate(200, 200)">
    <!-- Parent Figure -->
    <circle cx="200" cy="150" r="60" fill="#6366F1"/>
    <rect x="160" y="210" width="80" height="120" rx="40" fill="#6366F1"/>
    
    <!-- Child Figure 1 -->
    <circle cx="320" cy="180" r="40" fill="#F59E0B"/>
    <rect x="290" y="220" width="60" height="90" rx="30" fill="#F59E0B"/>
    
    <!-- Child Figure 2 -->
    <circle cx="450" cy="180" r="40" fill="#3B82F6"/>
    <rect x="420" y="220" width="60" height="90" rx="30" fill="#3B82F6"/>
    
    <!-- Heart Symbol -->
    <path d="M350 380 C340 370, 320 370, 310 380 C300 370, 280 370, 270 380 C270 390, 280 400, 310 420 C340 400, 350 390, 350 380 Z" fill="#EF4444"/>
    
    <!-- Calendar/Schedule Symbol -->
    <rect x="500" y="350" width="100" height="80" rx="10" fill="#6366F1" opacity="0.8"/>
    <rect x="510" y="340" width="80" height="10" rx="5" fill="#6366F1"/>
    <circle cx="520" cy="370" r="3" fill="#FFFFFF"/>
    <circle cx="540" cy="370" r="3" fill="#FFFFFF"/>
    <circle cx="560" cy="370" r="3" fill="#FFFFFF"/>
    <circle cx="580" cy="370" r="3" fill="#FFFFFF"/>
    <circle cx="520" cy="390" r="3" fill="#FFFFFF"/>
    <circle cx="540" cy="390" r="3" fill="#FFFFFF"/>
    <circle cx="560" cy="390" r="3" fill="#FFFFFF"/>
    <circle cx="580" cy="390" r="3" fill="#FFFFFF"/>
  </g>
</svg>