<svg width="32" height="32" viewBox="0 0 32 32" fill="none" xmlns="http://www.w3.org/2000/svg">
  <!-- Background -->
  <rect width="32" height="32" rx="6" fill="#6366F1"/>
  
  <!-- Simplified Icon -->
  <g transform="translate(4, 6)">
    <!-- Parent Figure -->
    <circle cx="6" cy="4" r="2" fill="#FFFFFF"/>
    <rect x="5" y="6" width="2" height="4" rx="1" fill="#FFFFFF"/>
    
    <!-- Child Figure 1 -->
    <circle cx="10" cy="5" r="1.5" fill="#FEF3C7"/>
    <rect x="9" y="6.5" width="2" height="3" rx="1" fill="#FEF3C7"/>
    
    <!-- Child Figure 2 -->
    <circle cx="14" cy="5" r="1.5" fill="#DBEAFE"/>
    <rect x="13" y="6.5" width="2" height="3" rx="1" fill="#DBEAFE"/>
    
    <!-- Heart Symbol -->
    <path d="M11 12 C10.5 11.5, 9.5 11.5, 9 12 C8.5 11.5, 7.5 11.5, 7 12 C7 12.5, 7.5 13, 9 14 C10.5 13, 11 12.5, 11 12 Z" fill="#EF4444"/>
    
    <!-- Calendar Symbol -->
    <rect x="16" y="11" width="6" height="4" rx="0.5" fill="#FFFFFF" opacity="0.8"/>
    <rect x="16.5" y="10.5" width="5" height="0.5" rx="0.25" fill="#FFFFFF"/>
    <circle cx="17.5" cy="12" r="0.3" fill="#6366F1"/>
    <circle cx="18.5" cy="12" r="0.3" fill="#6366F1"/>
    <circle cx="19.5" cy="12" r="0.3" fill="#6366F1"/>
    <circle cx="20.5" cy="12" r="0.3" fill="#6366F1"/>
    <circle cx="17.5" cy="13" r="0.3" fill="#6366F1"/>
    <circle cx="18.5" cy="13" r="0.3" fill="#6366F1"/>
    <circle cx="19.5" cy="13" r="0.3" fill="#6366F1"/>
    <circle cx="20.5" cy="13" r="0.3" fill="#6366F1"/>
  </g>
</svg>